<svg width="66" height="18" viewBox="0 0 66 18" fill="none" xmlns="http://www.w3.org/2000/svg">
<path d="M13.792 16.976L10.744 17.048C10.6 17.048 10.528 16.912 10.528 16.64C10.528 16.368 10.6 16.232 10.744 16.232H12.112C12.448 16.232 12.616 16.096 12.616 15.824C12.616 15.712 12.312 14.76 11.704 12.968C11.096 11.16 10.72 10.032 10.576 9.584H6.232C5.096 13.2 4.528 15.288 4.528 15.848C4.528 16.088 4.576 16.208 4.672 16.208H6.4C6.576 16.208 6.664 16.344 6.664 16.616C6.664 16.872 6.56 17 6.352 17L3.256 16.976L0.592 17.048C0.448 17.048 0.376 16.912 0.376 16.64C0.376 16.368 0.448 16.232 0.592 16.232H1.792C2.144 16.232 2.408 16.056 2.584 15.704C3.256 14.248 4.104 12.08 5.128 9.2C6.168 6.32 6.872 4.416 7.24 3.488C7.624 2.544 7.816 2.024 7.816 1.928C7.816 1.816 7.784 1.696 7.72 1.568C7.656 1.44 7.624 1.36 7.624 1.328C7.624 1.2 7.736 1.136 7.96 1.136C8.2 1.136 8.416 1.08 8.608 0.967999C8.816 0.855999 8.952 0.728 9.016 0.584C9.192 0.231999 9.352 0.0559993 9.496 0.0559993C9.56 0.0559993 9.672 0.295999 9.832 0.775999L14.656 13.808C15.264 15.408 15.688 16.208 15.928 16.208H16.792C16.952 16.208 17.032 16.344 17.032 16.616C17.032 16.872 16.968 17 16.84 17L13.792 16.976ZM8.416 3.344C7.92 4.624 7.296 6.384 6.544 8.624H10.24C9.168 5.376 8.592 3.616 8.512 3.344H8.416ZM28.4866 12.848C28.4866 14.176 27.9186 15.256 26.7826 16.088C25.6466 16.904 24.3906 17.312 23.0146 17.312C21.6386 17.312 20.4226 17.072 19.3666 16.592L19.5586 17.072C19.6066 17.168 19.5666 17.256 19.4386 17.336C19.3266 17.432 19.1986 17.48 19.0546 17.48C18.9106 17.48 18.8146 17.44 18.7666 17.36C18.2546 16.064 17.9426 14.56 17.8306 12.848C17.8306 12.688 17.9586 12.608 18.2146 12.608C18.4706 12.608 18.6066 12.664 18.6226 12.776C18.9746 13.992 19.6866 14.968 20.7586 15.704C21.4146 16.168 22.1746 16.4 23.0386 16.4C23.9186 16.4 24.6226 16.152 25.1506 15.656C25.6946 15.144 25.9666 14.536 25.9666 13.832C25.9666 13.112 25.7826 12.472 25.4146 11.912C25.0466 11.336 24.5906 10.872 24.0466 10.52C23.5026 10.168 22.9106 9.8 22.2706 9.416C21.6306 9.016 21.0386 8.64 20.4946 8.288C19.9506 7.92 19.4946 7.432 19.1266 6.824C18.7586 6.216 18.5746 5.528 18.5746 4.76C18.5746 3.592 19.0946 2.608 20.1346 1.808C21.1906 0.992 22.5106 0.584 24.0946 0.584C24.8146 0.584 25.4866 0.679999 26.1106 0.871999L26.3986 0.943999C26.3346 0.687999 26.2946 0.511999 26.2786 0.415999C26.2786 0.319999 26.3106 0.255999 26.3746 0.223999C26.4546 0.175999 26.5666 0.151999 26.7106 0.151999C26.8706 0.151999 26.9746 0.216 27.0226 0.344C27.3906 1.64 27.6066 2.912 27.6706 4.16C27.6226 4.256 27.4866 4.304 27.2626 4.304C27.0546 4.304 26.9266 4.28 26.8786 4.232C26.7026 3.576 26.4546 3.04 26.1346 2.624C25.8146 2.192 25.4626 1.896 25.0786 1.736C24.6946 1.576 24.2466 1.496 23.7346 1.496C22.7426 1.496 22.0306 1.752 21.5986 2.264C21.1826 2.76 20.9746 3.312 20.9746 3.92C20.9746 4.512 21.1106 5.024 21.3826 5.456C21.6706 5.872 22.0306 6.24 22.4626 6.56C22.9106 6.864 23.3986 7.168 23.9266 7.472C24.4546 7.76 24.9826 8.072 25.5106 8.408C26.0546 8.744 26.5506 9.112 26.9986 9.512C27.9906 10.392 28.4866 11.504 28.4866 12.848ZM41.5686 7.976C41.5686 8.072 41.4566 8.12 41.2326 8.12C41.0246 8.12 40.9206 8.064 40.9206 7.952C40.7606 7.168 40.5206 6.736 40.2006 6.656C39.6246 6.528 38.7526 6.448 37.5846 6.416H37.1286C36.9686 6.432 36.8886 6.56 36.8886 6.8V14.432C36.8886 15.648 37.0486 16.256 37.3686 16.256H38.5686C38.6966 16.256 38.7606 16.384 38.7606 16.64C38.7606 16.88 38.7126 17 38.6166 17L35.8326 16.976L33.4326 17.048C33.3206 17.048 33.2646 16.928 33.2646 16.688C33.2646 16.448 33.3126 16.328 33.4086 16.328H34.4886C34.6646 16.328 34.7686 16.296 34.8006 16.232C34.8326 16.152 34.8486 15.952 34.8486 15.632V8.336C34.8486 7.136 34.7046 6.496 34.4166 6.416C33.1206 6.416 32.1526 6.496 31.5126 6.656C31.1926 6.736 30.9526 7.168 30.7926 7.952C30.7926 8.064 30.6806 8.12 30.4566 8.12C30.2486 8.12 30.1446 8.072 30.1446 7.976L30.2646 5.096C30.2646 5 30.3686 4.952 30.5766 4.952C30.8006 4.952 30.9126 5 30.9126 5.096V5.408C30.9126 5.408 31.9606 5.424 34.0566 5.456H35.8326C38.2646 5.456 39.8966 5.44 40.7286 5.408H40.8006V5.096C40.8006 5 40.9046 4.952 41.1126 4.952C41.3366 4.952 41.4486 5 41.4486 5.096L41.5686 7.976ZM43.2625 17L41.3665 17.048C41.2545 17.048 41.1985 16.944 41.1985 16.736C41.1985 16.528 41.2545 16.424 41.3665 16.424H42.1345C42.3105 16.424 42.4385 16.352 42.5185 16.208C42.8865 15.6 43.6225 13.984 44.7265 11.36C45.8305 8.72 46.6225 6.72 47.1025 5.36C47.1665 5.216 47.3185 5.144 47.5585 5.144C47.8145 5.144 47.9745 5.224 48.0385 5.384C48.2305 6.184 48.7905 7.696 49.7185 9.92C50.6625 12.144 51.4865 14 52.1905 15.488C52.3825 15.872 52.5585 16.12 52.7185 16.232C52.8785 16.344 53.1265 16.4 53.4625 16.4C53.5585 16.4 53.6065 16.512 53.6065 16.736C53.6065 16.944 53.5665 17.048 53.4865 17.048L51.1825 17L48.5905 17.048C48.4945 17.048 48.4465 16.944 48.4465 16.736C48.4465 16.528 48.4945 16.424 48.5905 16.424H49.7425C49.9185 16.424 50.0065 16.352 50.0065 16.208C50.0065 16.192 49.5585 14.96 48.6625 12.512H45.3265C44.5425 14.448 44.1505 15.584 44.1505 15.92C44.1505 16.24 44.2465 16.4 44.4385 16.4H45.4225C45.5505 16.4 45.6145 16.512 45.6145 16.736C45.6145 16.944 45.5665 17.048 45.4705 17.048L43.2625 17ZM48.3505 11.696C48.3025 11.552 47.8865 10.336 47.1025 8.048H47.0305C46.6465 9.152 46.1905 10.368 45.6625 11.696H48.3505ZM57.3132 17L54.7452 17.048C54.6332 17.048 54.5772 16.928 54.5772 16.688C54.5772 16.448 54.6172 16.328 54.6972 16.328H55.8732C56.0652 16.328 56.1612 16.192 56.1612 15.92V8.048C56.1612 6.784 55.9852 6.152 55.6332 6.152H54.7932C54.6172 6.152 54.5292 6.032 54.5292 5.792C54.5292 5.536 54.6012 5.408 54.7452 5.408C56.1692 5.44 57.6252 5.456 59.1132 5.456C60.6012 5.456 61.7532 5.776 62.5692 6.416C63.4012 7.04 63.8172 7.816 63.8172 8.744C63.8172 9.656 63.4892 10.392 62.8332 10.952C62.1772 11.512 61.3852 11.832 60.4572 11.912C60.9212 12.232 61.5212 12.872 62.2572 13.832C62.5292 14.2 62.9532 14.624 63.5292 15.104C64.1052 15.568 64.7532 15.984 65.4732 16.352C65.1532 16.992 64.6652 17.312 64.0092 17.312C63.3532 17.312 62.7772 17.072 62.2812 16.592C61.7852 16.112 61.4012 15.584 61.1292 15.008C60.8572 14.416 60.5532 13.808 60.2172 13.184C59.8972 12.56 59.5932 12.152 59.3052 11.96L58.2012 11.888V14.672C58.2012 15.728 58.3612 16.256 58.6812 16.256H59.6892C59.8172 16.256 59.8812 16.384 59.8812 16.64C59.8812 16.88 59.8412 17 59.7612 17H57.3132ZM58.6812 6.176C58.3612 6.176 58.2012 6.44 58.2012 6.968V10.952C58.4252 11 58.6492 11.024 58.8732 11.024C59.5932 11.024 60.2172 10.824 60.7452 10.424C61.2732 10.024 61.5372 9.48 61.5372 8.792C61.5372 8.104 61.2972 7.496 60.8172 6.968C60.3532 6.44 59.6412 6.176 58.6812 6.176Z" fill="#801FCD"/>
</svg>
